<?xml version="1.0" encoding="UTF-8" standalone="no"?>
<!-- Uploaded to: SVG Repo, www.svgrepo.com, Generator: SVG Repo Mixer Tools -->

<svg
   fill="#000000"
   version="1.1"
   id="Layer_1"
   width="505.716"
   height="267.58099"
   viewBox="0 0 63.2145 33.447624"
   enable-background="new 0 0 100 100"
   xml:space="preserve"
   sodipodi:docname="menu-arrow.svg"
   inkscape:version="1.3 (0e150ed6c4, 2023-07-21)"
   xmlns:inkscape="http://www.inkscape.org/namespaces/inkscape"
   xmlns:sodipodi="http://sodipodi.sourceforge.net/DTD/sodipodi-0.dtd"
   xmlns="http://www.w3.org/2000/svg"
   xmlns:svg="http://www.w3.org/2000/svg"><defs
   id="defs1" /><sodipodi:namedview
   id="namedview1"
   pagecolor="#505050"
   bordercolor="#ffffff"
   borderopacity="1"
   inkscape:showpageshadow="0"
   inkscape:pageopacity="0"
   inkscape:pagecheckerboard="1"
   inkscape:deskcolor="#505050"
   inkscape:zoom="0.97125"
   inkscape:cx="400"
   inkscape:cy="317.63192"
   inkscape:window-width="1920"
   inkscape:window-height="991"
   inkscape:window-x="-9"
   inkscape:window-y="-9"
   inkscape:window-maximized="1"
   inkscape:current-layer="Layer_1" />&#10;<g
   id="g1"
   transform="translate(-18.658625,-34.725238)">&#10;	<path
   d="M 78.466,35.559 50.15,63.633 22.078,35.317 c -0.777,-0.785 -2.044,-0.789 -2.828,-0.012 -0.784,0.777 -0.789,2.044 -0.012,2.827 L 48.432,67.58 c 0.365,0.368 0.835,0.563 1.312,0.589 0.139,0.008 0.278,-10e-4 0.415,-0.021 0.054,0.008 0.106,0.021 0.16,0.022 0.544,0.029 1.099,-0.162 1.515,-0.576 L 81.281,38.398 c 0.785,-0.777 0.79,-2.043 0.012,-2.828 -0.778,-0.785 -2.044,-0.789 -2.827,-0.011 z"
   id="path1" />&#10;</g>&#10;</svg>
